# xmcd CD database file
#
# Track frame offsets:
#	150
#	17009
#	39413
#	51822
#	66481
#	91090
#	104892
#	119117
#	134433
#	150864
#	166273
#	177882
#	194716
#	212329
#	228930
#	239813
#	256656
#	272212
#	285810
#	299912
#	311077
#	321259
#
# Disc length: 4433 seconds
#
# Revision: 0
# Processed by: cddbd v1.5.1PL2 Copyright (c) Steve Scherf et al.
# Submitted via: CDex 1.50
#
DISCID=4b114f16
DTITLE=Glenn Jones - The Track To Yesterday
DYEAR=2000
DGENRE=Country
TTITLE0=The Track To Yesterday
TTITLE1=Blacksoil Plains Of The Outback
TTITLE2=The Bush Never Leaves Me Alone
TTITLE3=The Black Mare In The Furrow
TTITLE4=The Travelling Showman
TTITLE5=Rodeoin' Round Australia
TTITLE6=Nod And Ride
TTITLE7=King Of The Rank Pen
TTITLE8=Trading My Crown For A Ring
TTITLE9=That's What Rodeo Is
TTITLE10=One Cut Above The Rest
TTITLE11=Big Clumper Buckjumper
TTITLE12=I Like Plaited Leather
TTITLE13=The Last Of The B Model Macks
TTITLE14=The Quiet Bloke
TTITLE15=The Yodelling Ghost
TTITLE16=Six Strings And An Old Blues Lick
TTITLE17=The Star Of Jervis Steel
TTITLE18=King Sized Didgeridoo
TTITLE19=A Plain Working Man
TTITLE20=Ring 'em In The Gidgee
TTITLE21=A Sheep's Eye View
EXTD=YEAR: 2000
EXTT0=
EXTT1=
EXTT2=
EXTT3=
EXTT4=
EXTT5=
EXTT6=
EXTT7=
EXTT8=
EXTT9=
EXTT10=
EXTT11=
EXTT12=
EXTT13=
EXTT14=
EXTT15=
EXTT16=
EXTT17=
EXTT18=
EXTT19=
EXTT20=
EXTT21=
PLAYORDER=
